<svg width="250pt" height="250pt" shape-rendering="crispEdges" version="1.1" viewBox="0 0 250 250" xmlns="http://www.w3.org/2000/svg">
 <path d="m32.02 15c15.66 0.01 31.32 0.01 46.99 0-0.05 26 0.03 52-0.01 78 41.67 0.01 83.33-0.01 125 0.01-0.02-20.67 0.02-41.34 0-62.01h14.98c0.01 3.75 0.04 11.23 0.05 14.97 5.32 0.02 10.64 0.03 15.97 0.05v187.98h-219v-202.99c5.33-0.01 10.65-0.02 15.98-0.03 0.01-5.33 0.03-10.66 0.04-15.98z" fill="#1524eb"/>
 <path d="m79.01 15h124.99c-0.01 5.33-0.01 10.67 0 16 0.02 20.67-0.02 41.34 0 62.01-41.67-0.02-83.33 0-125-0.01 0.04-26-0.04-52 0.01-78z" fill="#cbcbcb"/>
 <path d="m157 30.99c10.33 0.03 20.67 0.03 31.01 0-0.02 15.67-0.02 31.34-0.01 47.02-10.33-0.03-20.67-0.03-31.01 0 0.02-15.67 0.02-31.35 0.01-47.02z" fill="#1524eb"/>
 <path d="m63.02 109h124.96c0.01 5.32 0.02 10.65 0.04 15.98 5.32 0.01 10.65 0.02 15.98 0.04-0.02 25.99 0.02 51.99 0 77.98-0.01 5 0 10 0 15-52.33-0.01-104.67 0.01-157 0v-15c-0.02-26 0.01-51.99 0-77.99 5.33-0.01 10.65-0.02 15.98-0.03 0.01-5.33 0.02-10.66 0.04-15.98z" fill="#fff"/>
 <path d="m32 203c5-0.01 10 0 15 0v15c-5-0.01-10 0.01-15 0v-15z"/>
 <path d="m204 203h15v15c-5.01-0.01-10-0.01-15 0 0-5-0.01-10 0-15z"/>
</svg>
