<svg height="250pt" shape-rendering="crispEdges" viewBox="0 0 250 250" width="250pt" xmlns="http://www.w3.org/2000/svg"><path d="m32.02 15c15.66.01 31.32.01 46.99 0-.05 26 .03 52-.01 78 41.67.01 83.33-.01 125 .01-.02-20.67.02-41.34 0-62.01h14.98c.01 3.75.04 11.23.05 14.97 5.32.02 10.64.03 15.97.05v187.98h-219v-202.99c5.33-.01 10.65-.02 15.98-.03.01-5.33.03-10.66.04-15.98z" fill="#1524eb"/><path d="m79.01 15h124.99c-.01 5.33-.01 10.67 0 16 .02 20.67-.02 41.34 0 62.01-41.67-.02-83.33 0-125-.01.04-26-.04-52 .01-78z" fill="#cbcbcb"/><path d="m157 30.99c10.33.03 20.67.03 31.01 0-.02 15.67-.02 31.34-.01 47.02-10.33-.03-20.67-.03-31.01 0 .02-15.67.02-31.35.01-47.02z" fill="#1524eb"/><path d="m63.02 109h124.96c.01 5.32.02 10.65.04 15.98 5.32.01 10.65.02 15.98.04-.02 25.99.02 51.99 0 77.98-.01 5 0 10 0 15-52.33-.01-104.67.01-157 0v-15c-.02-26 .01-51.99 0-77.99 5.33-.01 10.65-.02 15.98-.03.01-5.33.02-10.66.04-15.98z" fill="#fff"/><path d="m32 203c5-.01 10 0 15 0v15c-5-.01-10 .01-15 0z"/><path d="m204 203h15v15c-5.01-.01-10-.01-15 0 0-5-.01-10 0-15z"/></svg>