<svg xmlns="http://www.w3.org/2000/svg" fill="currentColor"
    viewBox="0 0 16 16">
    <g id="wikipedia" class="bi">
      <path 
            d="M8.835 3.003c.828-.006 2.688 0 2.688 0l.033.03v.288q0 .12-.133.12c-.433.02-.522.063-.68.29-.087.126-.258.393-.435.694l-1.52 2.843-.043.089 1.858 3.801.113.031 2.926-6.946q.152-.42-.044-.595c-.132-.114-.224-.18-.563-.195l-.275-.014a.16.16 0 0 1-.096-.035.1.1 0 0 1-.046-.084v-.289l.042-.03h3.306l.034.03v.29q0 .117-.133.117-.65.03-.962.281a1.64 1.64 0 0 0-.488.704s-2.691 6.16-3.612 8.208c-.353.672-.7.61-1.004-.019A224 224 0 0 1 8.044 8.81c-.623 1.285-1.475 3.026-1.898 3.81-.411.715-.75.622-1.02.019-.45-1.065-1.131-2.519-1.817-3.982-.735-1.569-1.475-3.149-1.943-4.272-.167-.4-.293-.657-.412-.759q-.18-.15-.746-.18Q0 3.421 0 3.341v-.303l.034-.03c.615-.003 3.594 0 3.594 0l.034.03v.288q0 .119-.15.118l-.375.016q-.483.02-.483.288-.002.125.109.4c.72 1.753 3.207 6.998 3.207 6.998l.091.023 1.603-3.197-.32-.71L6.24 5.095s-.213-.433-.286-.577l-.098-.196c-.387-.77-.411-.82-.865-.88-.137-.017-.208-.035-.208-.102v-.304l.041-.03h2.853l.075.024v.303q0 .104-.15.104l-.206.03c-.523.04-.438.254-.09.946l1.057 2.163 1.17-2.332c.195-.427.155-.534.074-.633-.046-.055-.202-.144-.54-.158l-.133-.015a.16.16 0 0 1-.096-.034.1.1 0 0 1-.045-.085v-.288l.041-.03Z"/>
    </g>
    <g id="textfiles" class="bi">
        <path 
            d="M1.5 0A1.5 1.5 0 0 0 0 1.5v7A1.5 1.5 0 0 0 1.5 10H6v1H1a1 1 0 0 0-1 1v3a1 1 0 0 0 1 1h14a1 1 0 0 0 1-1v-3a1 1 0 0 0-1-1h-5v-1h4.5A1.5 1.5 0 0 0 16 8.5v-7A1.5 1.5 0 0 0 14.5 0zm0 1h13a.5.5 0 0 1 .5.5v7a.5.5 0 0 1-.5.5h-13a.5.5 0 0 1-.5-.5v-7a.5.5 0 0 1 .5-.5M12 12.5a.5.5 0 1 1 1 0 .5.5 0 0 1-1 0m2 0a.5.5 0 1 1 1 0 .5.5 0 0 1-1 0M1.5 12h5a.5.5 0 0 1 0 1h-5a.5.5 0 0 1 0-1M1 14.25a.25.25 0 0 1 .25-.25h5.5a.25.25 0 1 1 0 .5h-5.5a.25.25 0 0 1-.25-.25"/>
    </g>
    <g id="bluesky" class="bi">
        <path
            d="M3.468 1.948C5.303 3.325 7.276 6.118 8 7.616c.725-1.498 2.698-4.29 4.532-5.668C13.855.955 16 .186 16 2.632c0 .489-.28 4.105-.444 4.692-.572 2.04-2.653 2.561-4.504 2.246 3.236.551 4.06 2.375 2.281 4.2-3.376 3.464-4.852-.87-5.23-1.98-.07-.204-.103-.3-.103-.218 0-.081-.033.014-.102.218-.379 1.11-1.855 5.444-5.231 1.98-1.778-1.825-.955-3.65 2.28-4.2-1.85.315-3.932-.205-4.503-2.246C.28 6.737 0 3.12 0 2.632 0 .186 2.145.955 3.468 1.948" />
    </g>
    <g id="discord" class="bi">
        <path
            d="M13.545 2.907a13.2 13.2 0 0 0-3.257-1.011.05.05 0 0 0-.052.025c-.141.25-.297.577-.406.833a12.2 12.2 0 0 0-3.658 0 8 8 0 0 0-.412-.833.05.05 0 0 0-.052-.025c-1.125.194-2.22.534-3.257 1.011a.04.04 0 0 0-.021.018C.356 6.024-.213 9.047.066 12.032q.003.022.021.037a13.3 13.3 0 0 0 3.995 2.02.05.05 0 0 0 .056-.019q.463-.63.818-1.329a.05.05 0 0 0-.01-.059l-.018-.011a9 9 0 0 1-1.248-.595.05.05 0 0 1-.02-.066l.015-.019q.127-.095.248-.195a.05.05 0 0 1 .051-.007c2.619 1.196 5.454 1.196 8.041 0a.05.05 0 0 1 .053.007q.121.1.248.195a.05.05 0 0 1-.004.085 8 8 0 0 1-1.249.594.05.05 0 0 0-.03.03.05.05 0 0 0 .003.041c.24.465.515.909.817 1.329a.05.05 0 0 0 .056.019 13.2 13.2 0 0 0 4.001-2.02.05.05 0 0 0 .021-.037c.334-3.451-.559-6.449-2.366-9.106a.03.03 0 0 0-.02-.019m-8.198 7.307c-.789 0-1.438-.724-1.438-1.612s.637-1.613 1.438-1.613c.807 0 1.45.73 1.438 1.613 0 .888-.637 1.612-1.438 1.612m5.316 0c-.788 0-1.438-.724-1.438-1.612s.637-1.613 1.438-1.613c.807 0 1.451.73 1.438 1.613 0 .888-.631 1.612-1.438 1.612" />
    </g>
    <g id="envelope" class="bi">
        <path
            d="M2 2A2 2 0 0 0 .05 3.555L8 8.414l7.95-4.859A2 2 0 0 0 14 2zm-2 9.8V4.698l5.803 3.546zm6.761-2.97-6.57 4.026A2 2 0 0 0 2 14h6.256A4.5 4.5 0 0 1 8 12.5a4.49 4.49 0 0 1 1.606-3.446l-.367-.225L8 9.586zM16 9.671V4.697l-5.803 3.546.338.208A4.5 4.5 0 0 1 12.5 8c1.414 0 2.675.652 3.5 1.671" />
        <path
            d="M15.834 12.244c0 1.168-.577 2.025-1.587 2.025-.503 0-1.002-.228-1.12-.648h-.043c-.118.416-.543.643-1.015.643-.77 0-1.259-.542-1.259-1.434v-.529c0-.844.481-1.4 1.26-1.4.585 0 .87.333.953.63h.03v-.568h.905v2.19c0 .272.18.42.411.42.315 0 .639-.415.639-1.39v-.118c0-1.277-.95-2.326-2.484-2.326h-.04c-1.582 0-2.64 1.067-2.64 2.724v.157c0 1.867 1.237 2.654 2.57 2.654h.045c.507 0 .935-.07 1.18-.18v.731c-.219.1-.643.175-1.237.175h-.044C10.438 16 9 14.82 9 12.646v-.214C9 10.36 10.421 9 12.485 9h.035c2.12 0 3.314 1.43 3.314 3.034zm-4.04.21v.227c0 .586.227.8.581.8.31 0 .564-.17.564-.743v-.367c0-.516-.275-.708-.572-.708-.346 0-.573.245-.573.791" />
    </g>
    <g id="facebook" class="bi">
        <path
            d="M16 8.049c0-4.446-3.582-8.05-8-8.05C3.58 0-.002 3.603-.002 8.05c0 4.017 2.926 7.347 6.75 7.951v-5.625h-2.03V8.05H6.75V6.275c0-2.017 1.195-3.131 3.022-3.131.876 0 1.791.157 1.791.157v1.98h-1.009c-.993 0-1.303.621-1.303 1.258v1.51h2.218l-.354 2.326H9.25V16c3.824-.604 6.75-3.934 6.75-7.951" />
    </g>
    <g id="mastodon" class="bi">
        <path
            d="M11.19 12.195c2.016-.24 3.77-1.475 3.99-2.603.348-1.778.32-4.339.32-4.339 0-3.47-2.286-4.488-2.286-4.488C12.062.238 10.083.017 8.027 0h-.05C5.92.017 3.942.238 2.79.765c0 0-2.285 1.017-2.285 4.488l-.002.662c-.004.64-.007 1.35.011 2.091.083 3.394.626 6.74 3.78 7.57 1.454.383 2.703.463 3.709.408 1.823-.1 2.847-.647 2.847-.647l-.06-1.317s-1.303.41-2.767.36c-1.45-.05-2.98-.156-3.215-1.928a4 4 0 0 1-.033-.496s1.424.346 3.228.428c1.103.05 2.137-.064 3.188-.189zm1.613-2.47H11.13v-4.08c0-.859-.364-1.295-1.091-1.295-.804 0-1.207.517-1.207 1.541v2.233H7.168V5.89c0-1.024-.403-1.541-1.207-1.541-.727 0-1.091.436-1.091 1.296v4.079H3.197V5.522q0-1.288.66-2.046c.456-.505 1.052-.764 1.793-.764.856 0 1.504.328 1.933.983L8 4.39l.417-.695c.429-.655 1.077-.983 1.934-.983.74 0 1.336.259 1.791.764q.662.757.661 2.046z" />
    </g>
    <g id="twitter" class="bi">
        <path
            d="M5.026 15c6.038 0 9.341-5.003 9.341-9.334q.002-.211-.006-.422A6.7 6.7 0 0 0 16 3.542a6.7 6.7 0 0 1-1.889.518 3.3 3.3 0 0 0 1.447-1.817 6.5 6.5 0 0 1-2.087.793A3.286 3.286 0 0 0 7.875 6.03a9.32 9.32 0 0 1-6.767-3.429 3.29 3.29 0 0 0 1.018 4.382A3.3 3.3 0 0 1 .64 6.575v.045a3.29 3.29 0 0 0 2.632 3.218 3.2 3.2 0 0 1-.865.115 3 3 0 0 1-.614-.057 3.28 3.28 0 0 0 3.067 2.277A6.6 6.6 0 0 1 .78 13.58a6 6 0 0 1-.78-.045A9.34 9.34 0 0 0 5.026 15" />
    </g>
    <g id="youtube" class="bi">
        <path
            d="M8.051 1.999h.089c.822.003 4.987.033 6.11.335a2.01 2.01 0 0 1 1.415 1.42c.101.38.172.883.22 1.402l.01.104.022.26.008.104c.065.914.073 1.77.074 1.957v.075c-.001.194-.01 1.108-.082 2.06l-.008.105-.009.104c-.05.572-.124 1.14-.235 1.558a2.01 2.01 0 0 1-1.415 1.42c-1.16.312-5.569.334-6.18.335h-.142c-.309 0-1.587-.006-2.927-.052l-.17-.006-.087-.004-.171-.007-.171-.007c-1.11-.049-2.167-.128-2.654-.26a2.01 2.01 0 0 1-1.415-1.419c-.111-.417-.185-.986-.235-1.558L.09 9.82l-.008-.104A31 31 0 0 1 0 7.68v-.123c.002-.215.01-.958.064-1.778l.007-.103.003-.052.008-.104.022-.26.01-.104c.048-.519.119-1.023.22-1.402a2.01 2.01 0 0 1 1.415-1.42c.487-.13 1.544-.21 2.654-.26l.17-.007.172-.006.086-.003.171-.007A100 100 0 0 1 7.858 2zM6.4 5.209v4.818l4.157-2.408z" />
    </g>
    <g id="file-binary" class="bi">
        <path
            d="M5.526 10.273c-.542 0-.832.563-.832 1.612q0 .133.006.252l1.559-1.143c-.126-.474-.375-.72-.733-.72zm-.732 2.508c.126.472.372.718.732.718.54 0 .83-.563.83-1.614q0-.129-.006-.25z" />
        <path
            d="M9.293 0H4a2 2 0 0 0-2 2v12a2 2 0 0 0 2 2h8a2 2 0 0 0 2-2V4.707A1 1 0 0 0 13.707 4L10 .293A1 1 0 0 0 9.293 0M9.5 3.5v-2l3 3h-2a1 1 0 0 1-1-1m-2.45 8.385c0 1.415-.548 2.206-1.524 2.206C4.548 14.09 4 13.3 4 11.885c0-1.412.548-2.203 1.526-2.203.976 0 1.524.79 1.524 2.203m3.805 1.52V14h-3v-.595h1.181V10.5h-.05l-1.136.747v-.688l1.19-.786h.69v3.633z" />
    </g>
    <g id="cc-circle" class="bi">
        <path
            d="M1 8a7 7 0 1 0 14 0A7 7 0 0 0 1 8m15 0A8 8 0 1 1 0 8a8 8 0 0 1 16 0M5.408 5.89c-.83 0-1.318.64-1.318 1.753v.742c0 1.108.479 1.727 1.318 1.727.69 0 1.138-.435 1.187-1.05h1.147v.114c-.058 1.147-1.029 1.938-2.343 1.938-1.612 0-2.518-1.028-2.518-2.729v-.747c0-1.7.914-2.75 2.518-2.75 1.319 0 2.29.812 2.343 1.999v.11H6.595c-.049-.638-.506-1.108-1.187-1.108Zm5.404 0c-.831 0-1.319.64-1.319 1.753v.742c0 1.108.48 1.727 1.319 1.727.69 0 1.138-.435 1.186-1.05h1.147v.114c-.057 1.147-1.028 1.938-2.342 1.938-1.613 0-2.518-1.028-2.518-2.729v-.747c0-1.7.914-2.75 2.518-2.75 1.318 0 2.29.812 2.342 1.999v.11h-1.147c-.048-.638-.505-1.108-1.186-1.108Z" />
    </g>
    <g id="github" class="bi">
        <path d="M8 0C3.58 0 0 3.58 0 8c0 3.54 2.29 6.53 5.47 7.59.4.07.55-.17.55-.38 0-.19-.01-.82-.01-1.49-2.01.37-2.53-.49-2.69-.94-.09-.23-.48-.94-.82-1.13-.28-.15-.68-.52-.01-.53.63-.01 1.08.58 1.23.82.72 1.21 1.87.87 2.33.66.07-.52.28-.87.51-1.07-1.78-.2-3.64-.89-3.64-3.95 0-.87.31-1.59.82-2.15-.08-.2-.36-1.02.08-2.12 0 0 .67-.21 2.2.82.64-.18 1.32-.27 2-.27s1.36.09 2 .27c1.53-1.04 2.2-.82 2.2-.82.44 1.1.16 1.92.08 2.12.51.56.82 1.27.82 2.15 0 3.07-1.87 3.75-3.65 3.95.29.25.54.73.54 1.48 0 1.07-.01 1.93-.01 2.2 0 .21.15.46.55.38A8.01 8.01 0 0 0 16 8c0-4.42-3.58-8-8-8" fill="currentColor"/>
    </g>
    <!-- PayPal icon - official branding colors (blue #003087 and light blue #009cde) -->
    <g id="paypal" class="bi">
        <path d="M14.06 3.713c.12-1.071-.093-1.832-.702-2.526C12.628.356 11.312 0 9.626 0H4.734a.7.7 0 0 0-.691.59L2.005 13.509a.42.42 0 0 0 .415.486h2.756l-.202 1.28a.628.628 0 0 0 .62.726H8.14c.429 0 .793-.31.862-.731l.025-.13.48-3.043.03-.164.001-.007a.35.35 0 0 1 .348-.297h.38c1.266 0 2.425-.256 3.345-.91q.57-.403.993-1.005a4.94 4.94 0 0 0 .88-2.195c.242-1.246.13-2.356-.57-3.154a2.7 2.7 0 0 0-.76-.59l-.094-.061Z" fill="#009cde"/>
        <path d="M6.543 8.82a.7.7 0 0 1 .321-.079H8.3c2.82 0 5.027-1.144 5.672-4.456l.003-.016q.326.186.548.438c.546.623.679 1.535.45 2.71-.272 1.397-.866 2.307-1.663 2.874-.802.57-1.842.815-3.043.815h-.38a.87.87 0 0 0-.863.734l-.03.164-.48 3.043-.024.13-.001.004a.35.35 0 0 1-.348.296H5.595a.106.106 0 0 1-.105-.123l.208-1.32z" fill="#003087"/>
    </g>
    <g id="check2" class="bi">
        <path
            d="M13.854 3.646a.5.5 0 0 1 0 .708l-7 7a.5.5 0 0 1-.708 0l-3.5-3.5a.5.5 0 1 1 .708-.708L6.5 10.293l6.646-6.647a.5.5 0 0 1 .708 0" />
    </g>
    <g id="x" class="bi">
        <path
            d="M4.646 4.646a.5.5 0 0 1 .708 0L8 7.293l2.646-2.647a.5.5 0 0 1 .708.708L8.707 8l2.647 2.646a.5.5 0 0 1-.708.708L8 8.707l-2.646 2.647a.5.5 0 0 1-.708-.708L7.293 8 4.646 5.354a.5.5 0 0 1 0-.708" />
    </g>
    <g id="arrow-right" class="bi">
        <path fill-rule="evenodd"
            d="M1 8a.5.5 0 0 1 .5-.5h11.793l-3.147-3.146a.5.5 0 0 1 .708-.708l4 4a.5.5 0 0 1 0 .708l-4 4a.5.5 0 0 1-.708-.708L13.293 8.5H1.5A.5.5 0 0 1 1 8" />
    </g>
    <g id="forward" class="bi">
        <path
            d="M9.502 5.513a.144.144 0 0 0-.202.134V6.65a.5.5 0 0 1-.5.5H2.5v2.9h6.3a.5.5 0 0 1 .5.5v1.003c0 .108.11.176.202.134l3.984-2.933.042-.028a.147.147 0 0 0 0-.252l-.042-.028zM8.3 5.647a1.144 1.144 0 0 1 1.767-.96l3.994 2.94a1.147 1.147 0 0 1 0 1.946l-3.994 2.94a1.144 1.144 0 0 1-1.767-.96v-.503H2a.5.5 0 0 1-.5-.5v-3.9a.5.5 0 0 1 .5-.5h6.3z" />
    </g>
    <g id="bank2" class="bi">
        <path
            d="M8.277.084a.5.5 0 0 0-.554 0l-7.5 5A.5.5 0 0 0 .5 6h1.875v7H1.5a.5.5 0 0 0 0 1h13a.5.5 0 1 0 0-1h-.875V6H15.5a.5.5 0 0 0 .277-.916zM12.375 6v7h-1.25V6zm-2.5 0v7h-1.25V6zm-2.5 0v7h-1.25V6zm-2.5 0v7h-1.25V6zM8 4a1 1 0 1 1 0-2 1 1 0 0 1 0 2M.5 15a.5.5 0 0 0 0 1h15a.5.5 0 1 0 0-1z" />
    </g>
    <g id="reddit" class="bi">
        <path
            d="M6.167 8a.83.83 0 0 0-.83.83c0 .459.372.84.83.831a.831.831 0 0 0 0-1.661m1.843 3.647c.315 0 1.403-.038 1.976-.611a.23.23 0 0 0 0-.306.213.213 0 0 0-.306 0c-.353.363-1.126.487-1.67.487-.545 0-1.308-.124-1.671-.487a.213.213 0 0 0-.306 0 .213.213 0 0 0 0 .306c.564.563 1.652.61 1.977.61zm.992-2.807c0 .458.373.83.831.83s.83-.381.83-.83a.831.831 0 0 0-1.66 0z" />
        <path
            d="M16 8A8 8 0 1 1 0 8a8 8 0 0 1 16 0m-3.828-1.165c-.315 0-.602.124-.812.325-.801-.573-1.9-.945-3.121-.993l.534-2.501 1.738.372a.83.83 0 1 0 .83-.869.83.83 0 0 0-.744.468l-1.938-.41a.2.2 0 0 0-.153.028.2.2 0 0 0-.086.134l-.592 2.788c-1.24.038-2.358.41-3.17.992-.21-.2-.496-.324-.81-.324a1.163 1.163 0 0 0-.478 2.224q-.03.17-.029.353c0 1.795 2.091 3.256 4.669 3.256s4.668-1.451 4.668-3.256c0-.114-.01-.238-.029-.353.401-.181.688-.592.688-1.069 0-.65-.525-1.165-1.165-1.165" />
    </g>
    <g id="book" class="bi">
        <path
            d="M1 2.828c.885-.37 2.154-.769 3.388-.893 1.33-.134 2.458.063 3.112.752v9.746c-.935-.53-2.12-.603-3.213-.493-1.18.12-2.37.461-3.287.811zm7.5-.141c.654-.689 1.782-.886 3.112-.752 1.234.124 2.503.523 3.388.893v9.923c-.918-.35-2.107-.692-3.287-.81-1.094-.111-2.278-.039-3.213.492zM8 1.783C7.015.936 5.587.81 4.287.94c-1.514.153-3.042.672-3.994 1.105A.5.5 0 0 0 0 2.5v11a.5.5 0 0 0 .707.455c.882-.4 2.303-.881 3.68-1.02 1.409-.142 2.59.087 3.223.877a.5.5 0 0 0 .78 0c.633-.79 1.814-1.019 3.222-.877 1.378.139 2.8.62 3.681 1.02A.5.5 0 0 0 16 13.5v-11a.5.5 0 0 0-.293-.455c-.952-.433-2.48-.952-3.994-1.105C10.413.809 8.985.936 8 1.783" />
    </g>
    <g id="vimeo" class="bi">
        <path
            d="M15.992 4.204q-.106 2.334-3.262 6.393-3.263 4.243-5.522 4.243-1.4 0-2.367-2.583L3.55 7.523Q2.83 4.939 2.007 4.94q-.178.001-1.254.754L0 4.724a210 210 0 0 0 2.334-2.081q1.581-1.364 2.373-1.437 1.865-.185 2.298 2.553.466 2.952.646 3.666.54 2.447 1.186 2.445.5 0 1.508-1.587 1.006-1.587 1.077-2.415.144-1.37-1.077-1.37a3 3 0 0 0-1.185.261q1.183-3.86 4.508-3.756 2.466.075 2.324 3.2z" />
    </g>
    <g id="slash-circle" class="bi">
        <path d="M8 15A7 7 0 1 1 8 1a7 7 0 0 1 0 14m0 1A8 8 0 1 0 8 0a8 8 0 0 0 0 16" />
        <path d="M11.354 4.646a.5.5 0 0 0-.708 0l-6 6a.5.5 0 0 0 .708.708l6-6a.5.5 0 0 0 0-.708" />
    </g>
    <g id="cloud-download" class="bi">
        <path
            d="M4.406 1.342A5.53 5.53 0 0 1 8 0c2.69 0 4.923 2 5.166 4.579C14.758 4.804 16 6.137 16 7.773 16 9.569 14.502 11 12.687 11H10a.5.5 0 0 1 0-1h2.688C13.979 10 15 8.988 15 7.773c0-1.216-1.02-2.228-2.313-2.228h-.5v-.5C12.188 2.825 10.328 1 8 1a4.53 4.53 0 0 0-2.941 1.1c-.757.652-1.153 1.438-1.153 2.055v.448l-.445.049C2.064 4.805 1 5.952 1 7.318 1 8.785 2.23 10 3.781 10H6a.5.5 0 0 1 0 1H3.781C1.708 11 0 9.366 0 7.318c0-1.763 1.266-3.223 2.942-3.593.143-.863.698-1.723 1.464-2.383" />
        <path
            d="M7.646 15.854a.5.5 0 0 0 .708 0l3-3a.5.5 0 0 0-.708-.708L8.5 14.293V5.5a.5.5 0 0 0-1 0v8.793l-2.146-2.147a.5.5 0 0 0-.708.708z" />
    </g>
    <g id="terminal" class="bi">
        <path
            d="M6 9a.5.5 0 0 1 .5-.5h3a.5.5 0 0 1 0 1h-3A.5.5 0 0 1 6 9M3.854 4.146a.5.5 0 1 0-.708.708L4.793 6.5 3.146 8.146a.5.5 0 1 0 .708.708l2-2a.5.5 0 0 0 0-.708z" />
        <path
            d="M2 1a2 2 0 0 0-2 2v10a2 2 0 0 0 2 2h12a2 2 0 0 0 2-2V3a2 2 0 0 0-2-2zm12 1a1 1 0 0 1 1 1v10a1 1 0 0 1-1 1H2a1 1 0 0 1-1-1V3a1 1 0 0 1 1-1z" />
    </g>
    <g id="pc-display-horizontal" class="bi">
        <path
            d="M1.5 0A1.5 1.5 0 0 0 0 1.5v7A1.5 1.5 0 0 0 1.5 10H6v1H1a1 1 0 0 0-1 1v3a1 1 0 0 0 1 1h14a1 1 0 0 0 1-1v-3a1 1 0 0 0-1-1h-5v-1h4.5A1.5 1.5 0 0 0 16 8.5v-7A1.5 1.5 0 0 0 14.5 0zm0 1h13a.5.5 0 0 1 .5.5v7a.5.5 0 0 1-.5.5h-13a.5.5 0 0 1-.5-.5v-7a.5.5 0 0 1 .5-.5M12 12.5a.5.5 0 1 1 1 0 .5.5 0 0 1-1 0m2 0a.5.5 0 1 1 1 0 .5.5 0 0 1-1 0M1.5 12h5a.5.5 0 0 1 0 1h-5a.5.5 0 0 1 0-1M1 14.25a.25.25 0 0 1 .25-.25h5.5a.25.25 0 1 1 0 .5h-5.5a.25.25 0 0 1-.25-.25" />
    </g>
    <g id="cpu" class="bi">
        <path
            d="M5 0a.5.5 0 0 1 .5.5V2h1V.5a.5.5 0 0 1 1 0V2h1V.5a.5.5 0 0 1 1 0V2h1V.5a.5.5 0 0 1 1 0V2A2.5 2.5 0 0 1 14 4.5h1.5a.5.5 0 0 1 0 1H14v1h1.5a.5.5 0 0 1 0 1H14v1h1.5a.5.5 0 0 1 0 1H14v1h1.5a.5.5 0 0 1 0 1H14a2.5 2.5 0 0 1-2.5 2.5v1.5a.5.5 0 0 1-1 0V14h-1v1.5a.5.5 0 0 1-1 0V14h-1v1.5a.5.5 0 0 1-1 0V14h-1v1.5a.5.5 0 0 1-1 0V14A2.5 2.5 0 0 1 2 11.5H.5a.5.5 0 0 1 0-1H2v-1H.5a.5.5 0 0 1 0-1H2v-1H.5a.5.5 0 0 1 0-1H2v-1H.5a.5.5 0 0 1 0-1H2A2.5 2.5 0 0 1 4.5 2V.5A.5.5 0 0 1 5 0m-.5 3A1.5 1.5 0 0 0 3 4.5v7A1.5 1.5 0 0 0 4.5 13h7a1.5 1.5 0 0 0 1.5-1.5v-7A1.5 1.5 0 0 0 11.5 3zM5 6.5A1.5 1.5 0 0 1 6.5 5h3A1.5 1.5 0 0 1 11 6.5v3A1.5 1.5 0 0 1 9.5 11h-3A1.5 1.5 0 0 1 5 9.5zM6.5 6a.5.5 0 0 0-.5.5v3a.5.5 0 0 0 .5.5h3a.5.5 0 0 0 .5-.5v-3a.5.5 0 0 0-.5-.5z" />
    </g>
    <g id="pci-card-sound" class="bi">
        <path
            d="M7.562 7.39 8 7.04v1.92l-.438-.35a.5.5 0 0 0-.312-.11H6.5v-1h.75a.5.5 0 0 0 .312-.11" />
        <path
            d="M.5 1a.5.5 0 0 0 0 1H1v12.5a.5.5 0 0 0 1 0V12h13.5a.5.5 0 0 0 .5-.5v-7a.5.5 0 0 0-.5-.5H2V1.5a.5.5 0 0 0-.5-.5zm11.619 3.881q.15.173.28.367c.484.726.768 1.7.768 2.752s-.284 2.026-.768 2.752q-.13.195-.28.367l-.71-.71q.082-.096.158-.212c.36-.54.6-1.315.6-2.197s-.24-1.657-.6-2.198a3 3 0 0 0-.157-.212zm-1.375 4.863L10 9c.057 0 .17-.035.291-.217.12-.178.209-.454.209-.783 0-.33-.09-.605-.209-.783C10.17 7.035 10.057 7 10 7l.744-.744c.15.113.278.254.38.406.242.364.376.839.376 1.338s-.134.974-.377 1.338a1.7 1.7 0 0 1-.379.406M9 6v4a.5.5 0 0 1-.812.39L7.075 9.5H6a.5.5 0 0 1-.5-.5V7a.5.5 0 0 1 .5-.5h1.075l1.113-.89A.5.5 0 0 1 9 6" />
        <path
            d="M6.5 12.5H3v1a.5.5 0 0 0 .5.5H6a.5.5 0 0 0 .5-.5zm.5 1v-1h4v1a.5.5 0 0 1-.5.5h-3a.5.5 0 0 1-.5-.5" />
    </g>
    <g id="memory" class="bi">
        <path
            d="M1 3a1 1 0 0 0-1 1v8a1 1 0 0 0 1 1h4.586a1 1 0 0 0 .707-.293l.353-.353a.5.5 0 0 1 .708 0l.353.353a1 1 0 0 0 .707.293H15a1 1 0 0 0 1-1V4a1 1 0 0 0-1-1zm.5 1h3a.5.5 0 0 1 .5.5v4a.5.5 0 0 1-.5.5h-3a.5.5 0 0 1-.5-.5v-4a.5.5 0 0 1 .5-.5m5 0h3a.5.5 0 0 1 .5.5v4a.5.5 0 0 1-.5.5h-3a.5.5 0 0 1-.5-.5v-4a.5.5 0 0 1 .5-.5m4.5.5a.5.5 0 0 1 .5-.5h3a.5.5 0 0 1 .5.5v4a.5.5 0 0 1-.5.5h-3a.5.5 0 0 1-.5-.5zM2 10v2H1v-2zm2 0v2H3v-2zm2 0v2H5v-2zm3 0v2H8v-2zm2 0v2h-1v-2zm2 0v2h-1v-2zm2 0v2h-1v-2z" />
    </g>
    <g id="images" class="bi">
        <path d="M4.502 9a1.5 1.5 0 1 0 0-3 1.5 1.5 0 0 0 0 3" />
        <path
            d="M14.002 13a2 2 0 0 1-2 2h-10a2 2 0 0 1-2-2V5A2 2 0 0 1 2 3a2 2 0 0 1 2-2h10a2 2 0 0 1 2 2v8a2 2 0 0 1-1.998 2M14 2H4a1 1 0 0 0-1 1h9.002a2 2 0 0 1 2 2v7A1 1 0 0 0 15 11V3a1 1 0 0 0-1-1M2.002 4a1 1 0 0 0-1 1v8l2.646-2.354a.5.5 0 0 1 .63-.062l2.66 1.773 3.71-3.71a.5.5 0 0 1 .577-.094l1.777 1.947V5a1 1 0 0 0-1-1z" />
    </g>
    <g id="file-text" class="bi">
        <path
            d="M5 4a.5.5 0 0 0 0 1h6a.5.5 0 0 0 0-1zm-.5 2.5A.5.5 0 0 1 5 6h6a.5.5 0 0 1 0 1H5a.5.5 0 0 1-.5-.5M5 8a.5.5 0 0 0 0 1h6a.5.5 0 0 0 0-1zm0 2a.5.5 0 0 0 0 1h3a.5.5 0 0 0 0-1z" />
        <path
            d="M2 2a2 2 0 0 1 2-2h8a2 2 0 0 1 2 2v12a2 2 0 0 1-2 2H4a2 2 0 0 1-2-2zm10-1H4a1 1 0 0 0-1 1v12a1 1 0 0 0 1 1h8a1 1 0 0 0 1-1V2a1 1 0 0 0-1-1" />
    </g>
    <g id="terminal-plus" class="bi">
        <path
            d="M2 3a1 1 0 0 0-1 1v8a1 1 0 0 0 1 1h5.5a.5.5 0 0 1 0 1H2a2 2 0 0 1-2-2V4a2 2 0 0 1 2-2h11a2 2 0 0 1 2 2v4a.5.5 0 0 1-1 0V4a1 1 0 0 0-1-1z" />
        <path
            d="M3.146 5.146a.5.5 0 0 1 .708 0L5.177 6.47a.75.75 0 0 1 0 1.06L3.854 8.854a.5.5 0 1 1-.708-.708L4.293 7 3.146 5.854a.5.5 0 0 1 0-.708M5.5 9a.5.5 0 0 1 .5-.5h2a.5.5 0 0 1 0 1H6a.5.5 0 0 1-.5-.5M16 12.5a3.5 3.5 0 1 1-7 0 3.5 3.5 0 0 1 7 0m-3.5-2a.5.5 0 0 0-.5.5v1h-1a.5.5 0 0 0 0 1h1v1a.5.5 0 0 0 1 0v-1h1a.5.5 0 0 0 0-1h-1v-1a.5.5 0 0 0-.5-.5" />
    </g>
    <!-- Ko-fi icon - taken from more.ko-fi.com -->
    <g id="kofi" class="bi">
        <path d="M96.1344 193.911C61.1312 193.911 32.6597 178.256 15.9721 149.829C1.19788 124.912 -0.00585938 97.9229 -0.00585938 67.7662C-0.00585938 49.8876 5.37293 34.3215 15.5413 22.7466C24.8861 12.1157 38.1271 5.22907 52.8317 3.35378C70.2858 1.14271 91.9848 0.958984 114.545 0.958984C151.259 0.958984 161.63 1.4088 176.075 2.85328C195.29 4.76026 211.458 11.932 222.824 23.5955C234.368 35.4428 240.469 51.2624 240.469 69.3627V72.9994C240.469 103.885 219.821 129.733 191.046 136.759C188.898 141.827 186.237 146.871 183.089 151.837L183.006 151.964C172.869 167.632 149.042 193.918 103.401 193.918H96.1281L96.1344 193.911Z" fill="currentColor"/>
        <path d="M174.568 17.9772C160.927 16.6151 151.38 16.1589 114.552 16.1589C90.908 16.1589 70.9008 16.387 54.7644 18.4334C33.3949 21.164 15.2058 37.5285 15.2058 67.7674C15.2058 98.0066 16.796 121.422 29.0741 142.107C42.9425 165.751 66.1302 178.707 96.1412 178.707H103.414C140.242 178.707 160.25 159.156 170.253 143.698C174.574 136.874 177.754 130.058 179.801 123.234C205.947 120.96 225.27 99.3624 225.27 72.9941V69.3577C225.27 40.9432 206.631 21.164 174.574 17.9772H174.568Z" fill="currentColor"/>
        <path d="M15.1975 67.7674C15.1975 37.5285 33.3866 21.164 54.7559 18.4334C70.8987 16.387 90.906 16.1589 114.544 16.1589C151.372 16.1589 160.919 16.6151 174.559 17.9772C206.617 21.1576 225.255 40.937 225.255 69.3577V72.9941C225.255 99.3687 205.932 120.966 179.786 123.234C177.74 130.058 174.559 136.874 170.238 143.698C160.235 159.156 140.228 178.707 103.4 178.707H96.1264C66.1155 178.707 42.9277 165.751 29.0595 142.107C16.7814 121.422 15.1912 98.4563 15.1912 67.7674" fill="#202020"/>
        <path d="M32.2469 67.9899C32.2469 97.3168 34.0654 116.184 43.6127 133.689C54.5225 153.924 74.3018 161.653 96.8117 161.653H103.857C133.411 161.653 147.736 147.329 155.693 134.829C159.558 128.462 162.966 121.417 164.784 112.547L166.147 106.864H174.332C192.521 106.864 208.208 92.09 208.208 73.2166V69.8082C208.208 48.6669 195.024 37.5228 172.058 34.7987C159.102 33.6646 151.372 33.2084 114.538 33.2084C89.7602 33.2084 72.0272 33.4364 58.6152 35.4828C39.7483 38.2134 32.2407 48.8951 32.2407 67.9899" fill="white"/>
        <path d="M166.158 83.6801C166.158 86.4107 168.204 88.4572 171.841 88.4572C183.435 88.4572 189.802 81.8619 189.802 70.9523C189.802 60.0427 183.435 53.2195 171.841 53.2195C168.204 53.2195 166.158 55.2657 166.158 57.9963V83.6866V83.6801Z" fill="#202020"/>
        <path d="M54.5321 82.3198C54.5321 95.732 62.0332 107.326 71.5807 116.424C77.9478 122.562 87.9515 128.93 94.7685 133.022C96.8147 134.157 98.8611 134.841 101.136 134.841C103.866 134.841 106.134 134.157 107.959 133.022C114.782 128.93 124.779 122.562 130.919 116.424C140.694 107.332 148.195 95.7383 148.195 82.3198C148.195 67.7673 137.286 54.8115 121.599 54.8115C112.28 54.8115 105.912 59.5882 101.136 66.1772C96.8147 59.582 90.2259 54.8115 80.9001 54.8115C64.9855 54.8115 54.5256 67.7673 54.5256 82.3198" fill="#FF5A16"/>
    </g>
    <!-- Buy Me a Coffee icon - taken from buymeacoffee.com/brand -->
    <g id="buymeacoffee" class="bi">
        <path d="M791.109 297.518L790.231 297.002L788.201 296.383C789.018 297.072 790.04 297.472 791.109 297.518V297.518Z" fill="#0D0C22"/>
        <path d="M803.896 388.891L802.916 389.166L803.896 388.891Z" fill="#0D0C22"/>
        <path d="M791.484 297.377C791.359 297.361 791.237 297.332 791.118 297.29C791.111 297.371 791.111 297.453 791.118 297.534C791.252 297.516 791.379 297.462 791.484 297.377V297.377Z" fill="#0D0C22"/>
        <path d="M791.113 297.529H791.244V297.447L791.113 297.529Z" fill="#0D0C22"/>
        <path d="M803.111 388.726L804.591 387.883L805.142 387.573L805.641 387.04C804.702 387.444 803.846 388.016 803.111 388.726V388.726Z" fill="#0D0C22"/>
        <path d="M793.669 299.515L792.223 298.138L791.243 297.605C791.77 298.535 792.641 299.221 793.669 299.515V299.515Z" fill="#0D0C22"/>
        <path d="M430.019 1186.18C428.864 1186.68 427.852 1187.46 427.076 1188.45L427.988 1187.87C428.608 1187.3 429.485 1186.63 430.019 1186.18Z" fill="#0D0C22"/>
        <path d="M641.187 1144.63C641.187 1143.33 640.551 1143.57 640.705 1148.21C640.705 1147.84 640.86 1147.46 640.929 1147.1C641.015 1146.27 641.084 1145.46 641.187 1144.63Z" fill="#0D0C22"/>
        <path d="M619.284 1186.18C618.129 1186.68 617.118 1187.46 616.342 1188.45L617.254 1187.87C617.873 1187.3 618.751 1186.63 619.284 1186.18Z" fill="#0D0C22"/>
        <path d="M281.304 1196.06C280.427 1195.3 279.354 1194.8 278.207 1194.61C279.136 1195.06 280.065 1195.51 280.684 1195.85L281.304 1196.06Z" fill="#0D0C22"/>
        <path d="M247.841 1164.01C247.704 1162.66 247.288 1161.35 246.619 1160.16C247.093 1161.39 247.489 1162.66 247.806 1163.94L247.841 1164.01Z" fill="#0D0C22"/>
        <path d="M472.623 590.836C426.682 610.503 374.546 632.802 306.976 632.802C278.71 632.746 250.58 628.868 223.353 621.274L270.086 1101.08C271.74 1121.13 280.876 1139.83 295.679 1153.46C310.482 1167.09 329.87 1174.65 349.992 1174.65C349.992 1174.65 416.254 1178.09 438.365 1178.09C462.161 1178.09 533.516 1174.65 533.516 1174.65C553.636 1174.65 573.019 1167.08 587.819 1153.45C602.619 1139.82 611.752 1121.13 613.406 1101.08L663.459 570.876C641.091 563.237 618.516 558.161 593.068 558.161C549.054 558.144 513.591 573.303 472.623 590.836Z" fill="#FFDD00"/>
        <path d="M78.6885 386.132L79.4799 386.872L79.9962 387.182C79.5987 386.787 79.1603 386.435 78.6885 386.132V386.132Z" fill="#0D0C22"/>
        <path d="M879.567 341.849L872.53 306.352C866.215 274.503 851.882 244.409 819.19 232.898C808.711 229.215 796.821 227.633 788.786 220.01C780.751 212.388 778.376 200.55 776.518 189.572C773.076 169.423 769.842 149.257 766.314 129.143C763.269 111.85 760.86 92.4243 752.928 76.56C742.604 55.2584 721.182 42.8009 699.88 34.559C688.965 30.4844 677.826 27.0375 666.517 24.2352C613.297 10.1947 557.342 5.03277 502.591 2.09047C436.875 -1.53577 370.983 -0.443234 305.422 5.35968C256.625 9.79894 205.229 15.1674 158.858 32.0469C141.91 38.224 124.445 45.6399 111.558 58.7341C95.7448 74.8221 90.5829 99.7026 102.128 119.765C110.336 134.012 124.239 144.078 138.985 150.737C158.192 159.317 178.251 165.846 198.829 170.215C256.126 182.879 315.471 187.851 374.007 189.968C438.887 192.586 503.87 190.464 568.44 183.618C584.408 181.863 600.347 179.758 616.257 177.304C634.995 174.43 647.022 149.928 641.499 132.859C634.891 112.453 617.134 104.538 597.055 107.618C594.095 108.082 591.153 108.512 588.193 108.942L586.06 109.252C579.257 110.113 572.455 110.915 565.653 111.661C551.601 113.175 537.515 114.414 523.394 115.378C491.768 117.58 460.057 118.595 428.363 118.647C397.219 118.647 366.058 117.769 334.983 115.722C320.805 114.793 306.661 113.611 292.552 112.177C286.134 111.506 279.733 110.801 273.333 110.009L267.241 109.235L265.917 109.046L259.602 108.134C246.697 106.189 233.792 103.953 221.025 101.251C219.737 100.965 218.584 100.249 217.758 99.2193C216.932 98.1901 216.482 96.9099 216.482 95.5903C216.482 94.2706 216.932 92.9904 217.758 91.9612C218.584 90.9319 219.737 90.2152 221.025 89.9293H221.266C232.33 87.5721 243.479 85.5589 254.663 83.8038C258.392 83.2188 262.131 82.6453 265.882 82.0832H265.985C272.988 81.6186 280.026 80.3625 286.994 79.5366C347.624 73.2302 408.614 71.0801 469.538 73.1014C499.115 73.9618 528.676 75.6996 558.116 78.6935C564.448 79.3474 570.746 80.0357 577.043 80.8099C579.452 81.1025 581.878 81.4465 584.305 81.7391L589.191 82.4445C603.438 84.5667 617.61 87.1419 631.708 90.1703C652.597 94.7128 679.422 96.1925 688.713 119.077C691.673 126.338 693.015 134.408 694.649 142.03L696.731 151.752C696.786 151.926 696.826 152.105 696.852 152.285C701.773 175.227 706.7 198.169 711.632 221.111C711.994 222.806 712.002 224.557 711.657 226.255C711.312 227.954 710.621 229.562 709.626 230.982C708.632 232.401 707.355 233.6 705.877 234.504C704.398 235.408 702.75 235.997 701.033 236.236H700.895L697.884 236.649L694.908 237.044C685.478 238.272 676.038 239.419 666.586 240.486C647.968 242.608 629.322 244.443 610.648 245.992C573.539 249.077 536.356 251.102 499.098 252.066C480.114 252.57 461.135 252.806 442.162 252.771C366.643 252.712 291.189 248.322 216.173 239.625C208.051 238.662 199.93 237.629 191.808 236.58C198.106 237.389 187.231 235.96 185.029 235.651C179.867 234.928 174.705 234.177 169.543 233.397C152.216 230.798 134.993 227.598 117.7 224.793C96.7944 221.352 76.8005 223.073 57.8906 233.397C42.3685 241.891 29.8055 254.916 21.8776 270.735C13.7217 287.597 11.2956 305.956 7.64786 324.075C4.00009 342.193 -1.67805 361.688 0.472751 380.288C5.10128 420.431 33.165 453.054 73.5313 460.35C111.506 467.232 149.687 472.807 187.971 477.556C338.361 495.975 490.294 498.178 641.155 484.129C653.44 482.982 665.708 481.732 677.959 480.378C681.786 479.958 685.658 480.398 689.292 481.668C692.926 482.938 696.23 485.005 698.962 487.717C701.694 490.429 703.784 493.718 705.08 497.342C706.377 500.967 706.846 504.836 706.453 508.665L702.633 545.797C694.936 620.828 687.239 695.854 679.542 770.874C671.513 849.657 663.431 928.434 655.298 1007.2C653.004 1029.39 650.71 1051.57 648.416 1073.74C646.213 1095.58 645.904 1118.1 641.757 1139.68C635.218 1173.61 612.248 1194.45 578.73 1202.07C548.022 1209.06 516.652 1212.73 485.161 1213.01C450.249 1213.2 415.355 1211.65 380.443 1211.84C343.173 1212.05 297.525 1208.61 268.756 1180.87C243.479 1156.51 239.986 1118.36 236.545 1085.37C231.957 1041.7 227.409 998.039 222.9 954.381L197.607 711.615L181.244 554.538C180.968 551.94 180.693 549.376 180.435 546.76C178.473 528.023 165.207 509.681 144.301 510.627C126.407 511.418 106.069 526.629 108.168 546.76L120.298 663.214L145.385 904.104C152.532 972.528 159.661 1040.96 166.773 1109.41C168.15 1122.52 169.44 1135.67 170.885 1148.78C178.749 1220.43 233.465 1259.04 301.224 1269.91C340.799 1276.28 381.337 1277.59 421.497 1278.24C472.979 1279.07 524.977 1281.05 575.615 1271.72C650.653 1257.95 706.952 1207.85 714.987 1130.13C717.282 1107.69 719.576 1085.25 721.87 1062.8C729.498 988.559 737.115 914.313 744.72 840.061L769.601 597.451L781.009 486.263C781.577 480.749 783.905 475.565 787.649 471.478C791.392 467.391 796.352 464.617 801.794 463.567C823.25 459.386 843.761 452.245 859.023 435.916C883.318 409.918 888.153 376.021 879.567 341.849ZM72.4301 365.835C72.757 365.68 72.1548 368.484 71.8967 369.792C71.8451 367.813 71.9483 366.058 72.4301 365.835ZM74.5121 381.94C74.6842 381.819 75.2003 382.508 75.7337 383.334C74.925 382.576 74.4089 382.009 74.4949 381.94H74.5121ZM76.5597 384.641C77.2996 385.897 77.6953 386.689 76.5597 384.641V384.641ZM80.672 387.979H80.7752C80.7752 388.1 80.9645 388.22 81.0333 388.341C80.9192 388.208 80.7925 388.087 80.6548 387.979H80.672ZM800.796 382.989C793.088 390.319 781.473 393.726 769.996 395.43C641.292 414.529 510.713 424.199 380.597 419.932C287.476 416.749 195.336 406.407 103.144 393.382C94.1102 392.109 84.3197 390.457 78.1082 383.798C66.4078 371.237 72.1548 345.944 75.2003 330.768C77.9878 316.865 83.3218 298.334 99.8572 296.355C125.667 293.327 155.64 304.218 181.175 308.09C211.917 312.781 242.774 316.538 273.745 319.36C405.925 331.405 540.325 329.529 671.92 311.91C695.905 308.686 719.805 304.941 743.619 300.674C764.835 296.871 788.356 289.731 801.175 311.703C809.967 326.673 811.137 346.701 809.778 363.615C809.359 370.984 806.139 377.915 800.779 382.989H800.796Z" fill="#0D0C22"/>
    </g>
</svg>
