<svg xmlns="http://www.w3.org/2000/svg" fill="currentColor"
    viewBox="0 0 16 16">
    <g id="discord" class="bi">
        <path
            d="M13.545 2.907a13.2 13.2 0 0 0-3.257-1.011.05.05 0 0 0-.052.025c-.141.25-.297.577-.406.833a12.2 12.2 0 0 0-3.658 0 8 8 0 0 0-.412-.833.05.05 0 0 0-.052-.025c-1.125.194-2.22.534-3.257 1.011a.04.04 0 0 0-.021.018C.356 6.024-.213 9.047.066 12.032q.003.022.021.037a13.3 13.3 0 0 0 3.995 2.02.05.05 0 0 0 .056-.019q.463-.63.818-1.329a.05.05 0 0 0-.01-.059l-.018-.011a9 9 0 0 1-1.248-.595.05.05 0 0 1-.02-.066l.015-.019q.127-.095.248-.195a.05.05 0 0 1 .051-.007c2.619 1.196 5.454 1.196 8.041 0a.05.05 0 0 1 .053.007q.121.1.248.195a.05.05 0 0 1-.004.085 8 8 0 0 1-1.249.594.05.05 0 0 0-.03.03.05.05 0 0 0 .003.041c.24.465.515.909.817 1.329a.05.05 0 0 0 .056.019 13.2 13.2 0 0 0 4.001-2.02.05.05 0 0 0 .021-.037c.334-3.451-.559-6.449-2.366-9.106a.03.03 0 0 0-.02-.019m-8.198 7.307c-.789 0-1.438-.724-1.438-1.612s.637-1.613 1.438-1.613c.807 0 1.45.73 1.438 1.613 0 .888-.637 1.612-1.438 1.612m5.316 0c-.788 0-1.438-.724-1.438-1.612s.637-1.613 1.438-1.613c.807 0 1.451.73 1.438 1.613 0 .888-.631 1.612-1.438 1.612" />
    </g>
    <g id="envelope" class="bi">
        <path
            d="M2 2A2 2 0 0 0 .05 3.555L8 8.414l7.95-4.859A2 2 0 0 0 14 2zm-2 9.8V4.698l5.803 3.546zm6.761-2.97-6.57 4.026A2 2 0 0 0 2 14h6.256A4.5 4.5 0 0 1 8 12.5a4.49 4.49 0 0 1 1.606-3.446l-.367-.225L8 9.586zM16 9.671V4.697l-5.803 3.546.338.208A4.5 4.5 0 0 1 12.5 8c1.414 0 2.675.652 3.5 1.671" />
        <path
            d="M15.834 12.244c0 1.168-.577 2.025-1.587 2.025-.503 0-1.002-.228-1.12-.648h-.043c-.118.416-.543.643-1.015.643-.77 0-1.259-.542-1.259-1.434v-.529c0-.844.481-1.4 1.26-1.4.585 0 .87.333.953.63h.03v-.568h.905v2.19c0 .272.18.42.411.42.315 0 .639-.415.639-1.39v-.118c0-1.277-.95-2.326-2.484-2.326h-.04c-1.582 0-2.64 1.067-2.64 2.724v.157c0 1.867 1.237 2.654 2.57 2.654h.045c.507 0 .935-.07 1.18-.18v.731c-.219.1-.643.175-1.237.175h-.044C10.438 16 9 14.82 9 12.646v-.214C9 10.36 10.421 9 12.485 9h.035c2.12 0 3.314 1.43 3.314 3.034zm-4.04.21v.227c0 .586.227.8.581.8.31 0 .564-.17.564-.743v-.367c0-.516-.275-.708-.572-.708-.346 0-.573.245-.573.791" />
    </g>
    <g id="facebook" class="bi">
        <path
            d="M16 8.049c0-4.446-3.582-8.05-8-8.05C3.58 0-.002 3.603-.002 8.05c0 4.017 2.926 7.347 6.75 7.951v-5.625h-2.03V8.05H6.75V6.275c0-2.017 1.195-3.131 3.022-3.131.876 0 1.791.157 1.791.157v1.98h-1.009c-.993 0-1.303.621-1.303 1.258v1.51h2.218l-.354 2.326H9.25V16c3.824-.604 6.75-3.934 6.75-7.951" />
    </g>
    <g id="mastodon" class="bi">
        <path
            d="M11.19 12.195c2.016-.24 3.77-1.475 3.99-2.603.348-1.778.32-4.339.32-4.339 0-3.47-2.286-4.488-2.286-4.488C12.062.238 10.083.017 8.027 0h-.05C5.92.017 3.942.238 2.79.765c0 0-2.285 1.017-2.285 4.488l-.002.662c-.004.64-.007 1.35.011 2.091.083 3.394.626 6.74 3.78 7.57 1.454.383 2.703.463 3.709.408 1.823-.1 2.847-.647 2.847-.647l-.06-1.317s-1.303.41-2.767.36c-1.45-.05-2.98-.156-3.215-1.928a4 4 0 0 1-.033-.496s1.424.346 3.228.428c1.103.05 2.137-.064 3.188-.189zm1.613-2.47H11.13v-4.08c0-.859-.364-1.295-1.091-1.295-.804 0-1.207.517-1.207 1.541v2.233H7.168V5.89c0-1.024-.403-1.541-1.207-1.541-.727 0-1.091.436-1.091 1.296v4.079H3.197V5.522q0-1.288.66-2.046c.456-.505 1.052-.764 1.793-.764.856 0 1.504.328 1.933.983L8 4.39l.417-.695c.429-.655 1.077-.983 1.934-.983.74 0 1.336.259 1.791.764q.662.757.661 2.046z" />
    </g>
    <g id="twitter" class="bi">
        <path
            d="M5.026 15c6.038 0 9.341-5.003 9.341-9.334q.002-.211-.006-.422A6.7 6.7 0 0 0 16 3.542a6.7 6.7 0 0 1-1.889.518 3.3 3.3 0 0 0 1.447-1.817 6.5 6.5 0 0 1-2.087.793A3.286 3.286 0 0 0 7.875 6.03a9.32 9.32 0 0 1-6.767-3.429 3.29 3.29 0 0 0 1.018 4.382A3.3 3.3 0 0 1 .64 6.575v.045a3.29 3.29 0 0 0 2.632 3.218 3.2 3.2 0 0 1-.865.115 3 3 0 0 1-.614-.057 3.28 3.28 0 0 0 3.067 2.277A6.6 6.6 0 0 1 .78 13.58a6 6 0 0 1-.78-.045A9.34 9.34 0 0 0 5.026 15" />
    </g>
    <g id="youtube" class="bi">
        <path
            d="M8.051 1.999h.089c.822.003 4.987.033 6.11.335a2.01 2.01 0 0 1 1.415 1.42c.101.38.172.883.22 1.402l.01.104.022.26.008.104c.065.914.073 1.77.074 1.957v.075c-.001.194-.01 1.108-.082 2.06l-.008.105-.009.104c-.05.572-.124 1.14-.235 1.558a2.01 2.01 0 0 1-1.415 1.42c-1.16.312-5.569.334-6.18.335h-.142c-.309 0-1.587-.006-2.927-.052l-.17-.006-.087-.004-.171-.007-.171-.007c-1.11-.049-2.167-.128-2.654-.26a2.01 2.01 0 0 1-1.415-1.419c-.111-.417-.185-.986-.235-1.558L.09 9.82l-.008-.104A31 31 0 0 1 0 7.68v-.123c.002-.215.01-.958.064-1.778l.007-.103.003-.052.008-.104.022-.26.01-.104c.048-.519.119-1.023.22-1.402a2.01 2.01 0 0 1 1.415-1.42c.487-.13 1.544-.21 2.654-.26l.17-.007.172-.006.086-.003.171-.007A100 100 0 0 1 7.858 2zM6.4 5.209v4.818l4.157-2.408z" />
    </g>
    <g id="file-binary" class="bi">
        <path
            d="M5.526 10.273c-.542 0-.832.563-.832 1.612q0 .133.006.252l1.559-1.143c-.126-.474-.375-.72-.733-.72zm-.732 2.508c.126.472.372.718.732.718.54 0 .83-.563.83-1.614q0-.129-.006-.25z" />
        <path
            d="M9.293 0H4a2 2 0 0 0-2 2v12a2 2 0 0 0 2 2h8a2 2 0 0 0 2-2V4.707A1 1 0 0 0 13.707 4L10 .293A1 1 0 0 0 9.293 0M9.5 3.5v-2l3 3h-2a1 1 0 0 1-1-1m-2.45 8.385c0 1.415-.548 2.206-1.524 2.206C4.548 14.09 4 13.3 4 11.885c0-1.412.548-2.203 1.526-2.203.976 0 1.524.79 1.524 2.203m3.805 1.52V14h-3v-.595h1.181V10.5h-.05l-1.136.747v-.688l1.19-.786h.69v3.633z" />
    </g>
    <g id="cc-circle" class="bi">
        <path
            d="M1 8a7 7 0 1 0 14 0A7 7 0 0 0 1 8m15 0A8 8 0 1 1 0 8a8 8 0 0 1 16 0M5.408 5.89c-.83 0-1.318.64-1.318 1.753v.742c0 1.108.479 1.727 1.318 1.727.69 0 1.138-.435 1.187-1.05h1.147v.114c-.058 1.147-1.029 1.938-2.343 1.938-1.612 0-2.518-1.028-2.518-2.729v-.747c0-1.7.914-2.75 2.518-2.75 1.319 0 2.29.812 2.343 1.999v.11H6.595c-.049-.638-.506-1.108-1.187-1.108Zm5.404 0c-.831 0-1.319.64-1.319 1.753v.742c0 1.108.48 1.727 1.319 1.727.69 0 1.138-.435 1.186-1.05h1.147v.114c-.057 1.147-1.028 1.938-2.342 1.938-1.613 0-2.518-1.028-2.518-2.729v-.747c0-1.7.914-2.75 2.518-2.75 1.318 0 2.29.812 2.342 1.999v.11h-1.147c-.048-.638-.505-1.108-1.186-1.108Z" />
    </g>
    <g id="check2" class="bi">
        <path
            d="M13.854 3.646a.5.5 0 0 1 0 .708l-7 7a.5.5 0 0 1-.708 0l-3.5-3.5a.5.5 0 1 1 .708-.708L6.5 10.293l6.646-6.647a.5.5 0 0 1 .708 0" />
    </g>
    <g id="x" class="bi">
        <path
            d="M4.646 4.646a.5.5 0 0 1 .708 0L8 7.293l2.646-2.647a.5.5 0 0 1 .708.708L8.707 8l2.647 2.646a.5.5 0 0 1-.708.708L8 8.707l-2.646 2.647a.5.5 0 0 1-.708-.708L7.293 8 4.646 5.354a.5.5 0 0 1 0-.708" />
    </g>
    <g id="arrow-right" class="bi">
        <path fill-rule="evenodd"
            d="M1 8a.5.5 0 0 1 .5-.5h11.793l-3.147-3.146a.5.5 0 0 1 .708-.708l4 4a.5.5 0 0 1 0 .708l-4 4a.5.5 0 0 1-.708-.708L13.293 8.5H1.5A.5.5 0 0 1 1 8" />
    </g>
    <g id="forward" class="bi">
        <path
            d="M9.502 5.513a.144.144 0 0 0-.202.134V6.65a.5.5 0 0 1-.5.5H2.5v2.9h6.3a.5.5 0 0 1 .5.5v1.003c0 .108.11.176.202.134l3.984-2.933.042-.028a.147.147 0 0 0 0-.252l-.042-.028zM8.3 5.647a1.144 1.144 0 0 1 1.767-.96l3.994 2.94a1.147 1.147 0 0 1 0 1.946l-3.994 2.94a1.144 1.144 0 0 1-1.767-.96v-.503H2a.5.5 0 0 1-.5-.5v-3.9a.5.5 0 0 1 .5-.5h6.3z" />
    </g>
    <g id="bank2" class="bi">
        <path
            d="M8.277.084a.5.5 0 0 0-.554 0l-7.5 5A.5.5 0 0 0 .5 6h1.875v7H1.5a.5.5 0 0 0 0 1h13a.5.5 0 1 0 0-1h-.875V6H15.5a.5.5 0 0 0 .277-.916zM12.375 6v7h-1.25V6zm-2.5 0v7h-1.25V6zm-2.5 0v7h-1.25V6zm-2.5 0v7h-1.25V6zM8 4a1 1 0 1 1 0-2 1 1 0 0 1 0 2M.5 15a.5.5 0 0 0 0 1h15a.5.5 0 1 0 0-1z" />
    </g>
    <g id="reddit" class="bi">
        <path
            d="M6.167 8a.83.83 0 0 0-.83.83c0 .459.372.84.83.831a.831.831 0 0 0 0-1.661m1.843 3.647c.315 0 1.403-.038 1.976-.611a.23.23 0 0 0 0-.306.213.213 0 0 0-.306 0c-.353.363-1.126.487-1.67.487-.545 0-1.308-.124-1.671-.487a.213.213 0 0 0-.306 0 .213.213 0 0 0 0 .306c.564.563 1.652.61 1.977.61zm.992-2.807c0 .458.373.83.831.83s.83-.381.83-.83a.831.831 0 0 0-1.66 0z" />
        <path
            d="M16 8A8 8 0 1 1 0 8a8 8 0 0 1 16 0m-3.828-1.165c-.315 0-.602.124-.812.325-.801-.573-1.9-.945-3.121-.993l.534-2.501 1.738.372a.83.83 0 1 0 .83-.869.83.83 0 0 0-.744.468l-1.938-.41a.2.2 0 0 0-.153.028.2.2 0 0 0-.086.134l-.592 2.788c-1.24.038-2.358.41-3.17.992-.21-.2-.496-.324-.81-.324a1.163 1.163 0 0 0-.478 2.224q-.03.17-.029.353c0 1.795 2.091 3.256 4.669 3.256s4.668-1.451 4.668-3.256c0-.114-.01-.238-.029-.353.401-.181.688-.592.688-1.069 0-.65-.525-1.165-1.165-1.165" />
    </g>
    <g id="book" class="bi">
        <path
            d="M1 2.828c.885-.37 2.154-.769 3.388-.893 1.33-.134 2.458.063 3.112.752v9.746c-.935-.53-2.12-.603-3.213-.493-1.18.12-2.37.461-3.287.811zm7.5-.141c.654-.689 1.782-.886 3.112-.752 1.234.124 2.503.523 3.388.893v9.923c-.918-.35-2.107-.692-3.287-.81-1.094-.111-2.278-.039-3.213.492zM8 1.783C7.015.936 5.587.81 4.287.94c-1.514.153-3.042.672-3.994 1.105A.5.5 0 0 0 0 2.5v11a.5.5 0 0 0 .707.455c.882-.4 2.303-.881 3.68-1.02 1.409-.142 2.59.087 3.223.877a.5.5 0 0 0 .78 0c.633-.79 1.814-1.019 3.222-.877 1.378.139 2.8.62 3.681 1.02A.5.5 0 0 0 16 13.5v-11a.5.5 0 0 0-.293-.455c-.952-.433-2.48-.952-3.994-1.105C10.413.809 8.985.936 8 1.783" />
    </g>
    <g id="vimeo" class="bi">
        <path
            d="M15.992 4.204q-.106 2.334-3.262 6.393-3.263 4.243-5.522 4.243-1.4 0-2.367-2.583L3.55 7.523Q2.83 4.939 2.007 4.94q-.178.001-1.254.754L0 4.724a210 210 0 0 0 2.334-2.081q1.581-1.364 2.373-1.437 1.865-.185 2.298 2.553.466 2.952.646 3.666.54 2.447 1.186 2.445.5 0 1.508-1.587 1.006-1.587 1.077-2.415.144-1.37-1.077-1.37a3 3 0 0 0-1.185.261q1.183-3.86 4.508-3.756 2.466.075 2.324 3.2z" />
    </g>
    <g id="slash-circle" class="bi">
        <path d="M8 15A7 7 0 1 1 8 1a7 7 0 0 1 0 14m0 1A8 8 0 1 0 8 0a8 8 0 0 0 0 16" />
        <path d="M11.354 4.646a.5.5 0 0 0-.708 0l-6 6a.5.5 0 0 0 .708.708l6-6a.5.5 0 0 0 0-.708" />
    </g>
    <g id="cloud-download" class="bi">
        <path
            d="M4.406 1.342A5.53 5.53 0 0 1 8 0c2.69 0 4.923 2 5.166 4.579C14.758 4.804 16 6.137 16 7.773 16 9.569 14.502 11 12.687 11H10a.5.5 0 0 1 0-1h2.688C13.979 10 15 8.988 15 7.773c0-1.216-1.02-2.228-2.313-2.228h-.5v-.5C12.188 2.825 10.328 1 8 1a4.53 4.53 0 0 0-2.941 1.1c-.757.652-1.153 1.438-1.153 2.055v.448l-.445.049C2.064 4.805 1 5.952 1 7.318 1 8.785 2.23 10 3.781 10H6a.5.5 0 0 1 0 1H3.781C1.708 11 0 9.366 0 7.318c0-1.763 1.266-3.223 2.942-3.593.143-.863.698-1.723 1.464-2.383" />
        <path
            d="M7.646 15.854a.5.5 0 0 0 .708 0l3-3a.5.5 0 0 0-.708-.708L8.5 14.293V5.5a.5.5 0 0 0-1 0v8.793l-2.146-2.147a.5.5 0 0 0-.708.708z" />
    </g>
    <g id="terminal" class="bi">
        <path
            d="M6 9a.5.5 0 0 1 .5-.5h3a.5.5 0 0 1 0 1h-3A.5.5 0 0 1 6 9M3.854 4.146a.5.5 0 1 0-.708.708L4.793 6.5 3.146 8.146a.5.5 0 1 0 .708.708l2-2a.5.5 0 0 0 0-.708z" />
        <path
            d="M2 1a2 2 0 0 0-2 2v10a2 2 0 0 0 2 2h12a2 2 0 0 0 2-2V3a2 2 0 0 0-2-2zm12 1a1 1 0 0 1 1 1v10a1 1 0 0 1-1 1H2a1 1 0 0 1-1-1V3a1 1 0 0 1 1-1z" />
    </g>
    <g id="pc-display-horizontal" class="bi">
        <path
            d="M1.5 0A1.5 1.5 0 0 0 0 1.5v7A1.5 1.5 0 0 0 1.5 10H6v1H1a1 1 0 0 0-1 1v3a1 1 0 0 0 1 1h14a1 1 0 0 0 1-1v-3a1 1 0 0 0-1-1h-5v-1h4.5A1.5 1.5 0 0 0 16 8.5v-7A1.5 1.5 0 0 0 14.5 0zm0 1h13a.5.5 0 0 1 .5.5v7a.5.5 0 0 1-.5.5h-13a.5.5 0 0 1-.5-.5v-7a.5.5 0 0 1 .5-.5M12 12.5a.5.5 0 1 1 1 0 .5.5 0 0 1-1 0m2 0a.5.5 0 1 1 1 0 .5.5 0 0 1-1 0M1.5 12h5a.5.5 0 0 1 0 1h-5a.5.5 0 0 1 0-1M1 14.25a.25.25 0 0 1 .25-.25h5.5a.25.25 0 1 1 0 .5h-5.5a.25.25 0 0 1-.25-.25" />
    </g>
    <g id="cpu" class="bi">
        <path
            d="M5 0a.5.5 0 0 1 .5.5V2h1V.5a.5.5 0 0 1 1 0V2h1V.5a.5.5 0 0 1 1 0V2h1V.5a.5.5 0 0 1 1 0V2A2.5 2.5 0 0 1 14 4.5h1.5a.5.5 0 0 1 0 1H14v1h1.5a.5.5 0 0 1 0 1H14v1h1.5a.5.5 0 0 1 0 1H14v1h1.5a.5.5 0 0 1 0 1H14a2.5 2.5 0 0 1-2.5 2.5v1.5a.5.5 0 0 1-1 0V14h-1v1.5a.5.5 0 0 1-1 0V14h-1v1.5a.5.5 0 0 1-1 0V14h-1v1.5a.5.5 0 0 1-1 0V14A2.5 2.5 0 0 1 2 11.5H.5a.5.5 0 0 1 0-1H2v-1H.5a.5.5 0 0 1 0-1H2v-1H.5a.5.5 0 0 1 0-1H2v-1H.5a.5.5 0 0 1 0-1H2A2.5 2.5 0 0 1 4.5 2V.5A.5.5 0 0 1 5 0m-.5 3A1.5 1.5 0 0 0 3 4.5v7A1.5 1.5 0 0 0 4.5 13h7a1.5 1.5 0 0 0 1.5-1.5v-7A1.5 1.5 0 0 0 11.5 3zM5 6.5A1.5 1.5 0 0 1 6.5 5h3A1.5 1.5 0 0 1 11 6.5v3A1.5 1.5 0 0 1 9.5 11h-3A1.5 1.5 0 0 1 5 9.5zM6.5 6a.5.5 0 0 0-.5.5v3a.5.5 0 0 0 .5.5h3a.5.5 0 0 0 .5-.5v-3a.5.5 0 0 0-.5-.5z" />
    </g>
    <g id="pci-card-sound" class="bi">
        <path
            d="M7.562 7.39 8 7.04v1.92l-.438-.35a.5.5 0 0 0-.312-.11H6.5v-1h.75a.5.5 0 0 0 .312-.11" />
        <path
            d="M.5 1a.5.5 0 0 0 0 1H1v12.5a.5.5 0 0 0 1 0V12h13.5a.5.5 0 0 0 .5-.5v-7a.5.5 0 0 0-.5-.5H2V1.5a.5.5 0 0 0-.5-.5zm11.619 3.881q.15.173.28.367c.484.726.768 1.7.768 2.752s-.284 2.026-.768 2.752q-.13.195-.28.367l-.71-.71q.082-.096.158-.212c.36-.54.6-1.315.6-2.197s-.24-1.657-.6-2.198a3 3 0 0 0-.157-.212zm-1.375 4.863L10 9c.057 0 .17-.035.291-.217.12-.178.209-.454.209-.783 0-.33-.09-.605-.209-.783C10.17 7.035 10.057 7 10 7l.744-.744c.15.113.278.254.38.406.242.364.376.839.376 1.338s-.134.974-.377 1.338a1.7 1.7 0 0 1-.379.406M9 6v4a.5.5 0 0 1-.812.39L7.075 9.5H6a.5.5 0 0 1-.5-.5V7a.5.5 0 0 1 .5-.5h1.075l1.113-.89A.5.5 0 0 1 9 6" />
        <path
            d="M6.5 12.5H3v1a.5.5 0 0 0 .5.5H6a.5.5 0 0 0 .5-.5zm.5 1v-1h4v1a.5.5 0 0 1-.5.5h-3a.5.5 0 0 1-.5-.5" />
    </g>
    <g id="memory" class="bi">
        <path
            d="M1 3a1 1 0 0 0-1 1v8a1 1 0 0 0 1 1h4.586a1 1 0 0 0 .707-.293l.353-.353a.5.5 0 0 1 .708 0l.353.353a1 1 0 0 0 .707.293H15a1 1 0 0 0 1-1V4a1 1 0 0 0-1-1zm.5 1h3a.5.5 0 0 1 .5.5v4a.5.5 0 0 1-.5.5h-3a.5.5 0 0 1-.5-.5v-4a.5.5 0 0 1 .5-.5m5 0h3a.5.5 0 0 1 .5.5v4a.5.5 0 0 1-.5.5h-3a.5.5 0 0 1-.5-.5v-4a.5.5 0 0 1 .5-.5m4.5.5a.5.5 0 0 1 .5-.5h3a.5.5 0 0 1 .5.5v4a.5.5 0 0 1-.5.5h-3a.5.5 0 0 1-.5-.5zM2 10v2H1v-2zm2 0v2H3v-2zm2 0v2H5v-2zm3 0v2H8v-2zm2 0v2h-1v-2zm2 0v2h-1v-2zm2 0v2h-1v-2z" />
    </g>
</svg>